<mxfile host="Electron" agent="Mozilla/5.0 (X11; Linux x86_64) AppleWebKit/537.36 (KHTML, like Gecko) draw.io/24.7.17 Chrome/128.0.6613.36 Electron/32.0.1 Safari/537.36" version="24.7.17">
  <diagram name="Page-1" id="cEAzMWiTIl2Fetn93cGK">
    <mxGraphModel dx="1383" dy="820" grid="1" gridSize="10" guides="1" tooltips="1" connect="1" arrows="1" fold="1" page="1" pageScale="1" pageWidth="1169" pageHeight="1654" math="0" shadow="0">
      <root>
        <mxCell id="0" />
        <mxCell id="1" parent="0" />
        <mxCell id="CSLr4fiPys_Uv9W4NYpY-1" value="" style="rounded=0;whiteSpace=wrap;html=1;fillColor=none;dashed=1;dashPattern=8 8;" vertex="1" parent="1">
          <mxGeometry x="80" y="20" width="980" height="1340" as="geometry" />
        </mxCell>
        <mxCell id="CSLr4fiPys_Uv9W4NYpY-240" value="" style="rounded=1;whiteSpace=wrap;html=1;fillColor=#f9f7ed;dashed=1;strokeColor=#36393d;opacity=50;" vertex="1" parent="1">
          <mxGeometry x="140" y="680" width="760" height="640" as="geometry" />
        </mxCell>
        <mxCell id="CSLr4fiPys_Uv9W4NYpY-225" value="" style="rounded=1;whiteSpace=wrap;html=1;fillColor=#f9f7ed;dashed=1;strokeColor=#36393d;opacity=50;" vertex="1" parent="1">
          <mxGeometry x="140" y="110" width="610" height="500" as="geometry" />
        </mxCell>
        <mxCell id="CSLr4fiPys_Uv9W4NYpY-8" value="clk_out" style="text;html=1;align=center;verticalAlign=middle;whiteSpace=wrap;rounded=0;fontStyle=1" vertex="1" parent="1">
          <mxGeometry x="1090" y="610" width="50" height="30" as="geometry" />
        </mxCell>
        <mxCell id="CSLr4fiPys_Uv9W4NYpY-10" value="reset_in" style="text;html=1;align=center;verticalAlign=middle;whiteSpace=wrap;rounded=0;fontStyle=1" vertex="1" parent="1">
          <mxGeometry x="20" y="40" width="50" height="20" as="geometry" />
        </mxCell>
        <mxCell id="CSLr4fiPys_Uv9W4NYpY-12" value="clk_in" style="text;html=1;align=center;verticalAlign=middle;whiteSpace=wrap;rounded=0;fontStyle=1" vertex="1" parent="1">
          <mxGeometry x="20" y="610" width="35" height="20" as="geometry" />
        </mxCell>
        <mxCell id="CSLr4fiPys_Uv9W4NYpY-13" value="" style="group" vertex="1" connectable="0" parent="1">
          <mxGeometry x="500" y="720" width="60" height="80" as="geometry" />
        </mxCell>
        <mxCell id="CSLr4fiPys_Uv9W4NYpY-14" value="" style="rounded=1;whiteSpace=wrap;html=1;fillColor=#fff2cc;strokeColor=#d6b656;container=0;" vertex="1" parent="CSLr4fiPys_Uv9W4NYpY-13">
          <mxGeometry width="60" height="80" as="geometry" />
        </mxCell>
        <mxCell id="CSLr4fiPys_Uv9W4NYpY-15" value="" style="triangle;whiteSpace=wrap;html=1;rotation=0;container=0;" vertex="1" parent="CSLr4fiPys_Uv9W4NYpY-13">
          <mxGeometry y="50" width="7.03" height="20" as="geometry" />
        </mxCell>
        <mxCell id="CSLr4fiPys_Uv9W4NYpY-16" value="D" style="text;html=1;align=center;verticalAlign=middle;whiteSpace=wrap;rounded=0;container=0;" vertex="1" parent="CSLr4fiPys_Uv9W4NYpY-13">
          <mxGeometry y="10" width="20" height="20" as="geometry" />
        </mxCell>
        <mxCell id="CSLr4fiPys_Uv9W4NYpY-17" value="Q" style="text;html=1;align=center;verticalAlign=middle;whiteSpace=wrap;rounded=0;container=0;" vertex="1" parent="CSLr4fiPys_Uv9W4NYpY-13">
          <mxGeometry x="40" y="10" width="20" height="20" as="geometry" />
        </mxCell>
        <mxCell id="CSLr4fiPys_Uv9W4NYpY-18" value="" style="group" vertex="1" connectable="0" parent="1">
          <mxGeometry x="500" y="820" width="60" height="80" as="geometry" />
        </mxCell>
        <mxCell id="CSLr4fiPys_Uv9W4NYpY-19" value="" style="rounded=1;whiteSpace=wrap;html=1;fillColor=#fff2cc;strokeColor=#d6b656;container=0;" vertex="1" parent="CSLr4fiPys_Uv9W4NYpY-18">
          <mxGeometry width="60" height="80" as="geometry" />
        </mxCell>
        <mxCell id="CSLr4fiPys_Uv9W4NYpY-20" value="" style="triangle;whiteSpace=wrap;html=1;rotation=0;container=0;" vertex="1" parent="CSLr4fiPys_Uv9W4NYpY-18">
          <mxGeometry y="50" width="7.03" height="20" as="geometry" />
        </mxCell>
        <mxCell id="CSLr4fiPys_Uv9W4NYpY-21" value="D" style="text;html=1;align=center;verticalAlign=middle;whiteSpace=wrap;rounded=0;container=0;" vertex="1" parent="CSLr4fiPys_Uv9W4NYpY-18">
          <mxGeometry y="10" width="20" height="20" as="geometry" />
        </mxCell>
        <mxCell id="CSLr4fiPys_Uv9W4NYpY-22" value="Q" style="text;html=1;align=center;verticalAlign=middle;whiteSpace=wrap;rounded=0;container=0;" vertex="1" parent="CSLr4fiPys_Uv9W4NYpY-18">
          <mxGeometry x="40" y="10" width="20" height="20" as="geometry" />
        </mxCell>
        <mxCell id="CSLr4fiPys_Uv9W4NYpY-23" value="" style="group" vertex="1" connectable="0" parent="1">
          <mxGeometry x="500" y="960" width="60" height="80" as="geometry" />
        </mxCell>
        <mxCell id="CSLr4fiPys_Uv9W4NYpY-24" value="" style="rounded=1;whiteSpace=wrap;html=1;fillColor=#fff2cc;strokeColor=#d6b656;container=0;" vertex="1" parent="CSLr4fiPys_Uv9W4NYpY-23">
          <mxGeometry width="60" height="80" as="geometry" />
        </mxCell>
        <mxCell id="CSLr4fiPys_Uv9W4NYpY-25" value="" style="triangle;whiteSpace=wrap;html=1;rotation=0;container=0;" vertex="1" parent="CSLr4fiPys_Uv9W4NYpY-23">
          <mxGeometry y="50" width="7.03" height="20" as="geometry" />
        </mxCell>
        <mxCell id="CSLr4fiPys_Uv9W4NYpY-26" value="D" style="text;html=1;align=center;verticalAlign=middle;whiteSpace=wrap;rounded=0;container=0;" vertex="1" parent="CSLr4fiPys_Uv9W4NYpY-23">
          <mxGeometry y="10" width="20" height="20" as="geometry" />
        </mxCell>
        <mxCell id="CSLr4fiPys_Uv9W4NYpY-27" value="Q" style="text;html=1;align=center;verticalAlign=middle;whiteSpace=wrap;rounded=0;container=0;" vertex="1" parent="CSLr4fiPys_Uv9W4NYpY-23">
          <mxGeometry x="40" y="10" width="20" height="20" as="geometry" />
        </mxCell>
        <mxCell id="CSLr4fiPys_Uv9W4NYpY-28" value="" style="group" vertex="1" connectable="0" parent="1">
          <mxGeometry x="500" y="1060" width="60" height="80" as="geometry" />
        </mxCell>
        <mxCell id="CSLr4fiPys_Uv9W4NYpY-29" value="" style="rounded=1;whiteSpace=wrap;html=1;fillColor=#fff2cc;strokeColor=#d6b656;container=0;" vertex="1" parent="CSLr4fiPys_Uv9W4NYpY-28">
          <mxGeometry width="60" height="80" as="geometry" />
        </mxCell>
        <mxCell id="CSLr4fiPys_Uv9W4NYpY-30" value="" style="triangle;whiteSpace=wrap;html=1;rotation=0;container=0;" vertex="1" parent="CSLr4fiPys_Uv9W4NYpY-28">
          <mxGeometry y="50" width="7.03" height="20" as="geometry" />
        </mxCell>
        <mxCell id="CSLr4fiPys_Uv9W4NYpY-31" value="D" style="text;html=1;align=center;verticalAlign=middle;whiteSpace=wrap;rounded=0;container=0;" vertex="1" parent="CSLr4fiPys_Uv9W4NYpY-28">
          <mxGeometry y="10" width="20" height="20" as="geometry" />
        </mxCell>
        <mxCell id="CSLr4fiPys_Uv9W4NYpY-32" value="Q" style="text;html=1;align=center;verticalAlign=middle;whiteSpace=wrap;rounded=0;container=0;" vertex="1" parent="CSLr4fiPys_Uv9W4NYpY-28">
          <mxGeometry x="40" y="10" width="20" height="20" as="geometry" />
        </mxCell>
        <mxCell id="CSLr4fiPys_Uv9W4NYpY-33" value="" style="endArrow=classic;html=1;rounded=0;entryX=0;entryY=0.5;entryDx=0;entryDy=0;" edge="1" parent="1" target="CSLr4fiPys_Uv9W4NYpY-30">
          <mxGeometry width="50" height="50" relative="1" as="geometry">
            <mxPoint x="480" y="1120" as="sourcePoint" />
            <mxPoint x="630" y="1090" as="targetPoint" />
          </mxGeometry>
        </mxCell>
        <mxCell id="CSLr4fiPys_Uv9W4NYpY-34" value="" style="endArrow=classic;html=1;rounded=0;entryX=0;entryY=0.5;entryDx=0;entryDy=0;" edge="1" parent="1">
          <mxGeometry width="50" height="50" relative="1" as="geometry">
            <mxPoint x="480" y="1020" as="sourcePoint" />
            <mxPoint x="500" y="1020" as="targetPoint" />
          </mxGeometry>
        </mxCell>
        <mxCell id="CSLr4fiPys_Uv9W4NYpY-35" value="" style="endArrow=classic;html=1;rounded=0;entryX=0;entryY=0.5;entryDx=0;entryDy=0;" edge="1" parent="1">
          <mxGeometry width="50" height="50" relative="1" as="geometry">
            <mxPoint x="480" y="880" as="sourcePoint" />
            <mxPoint x="500" y="880" as="targetPoint" />
          </mxGeometry>
        </mxCell>
        <mxCell id="CSLr4fiPys_Uv9W4NYpY-36" value="" style="endArrow=classic;html=1;rounded=0;entryX=0;entryY=0.5;entryDx=0;entryDy=0;" edge="1" parent="1">
          <mxGeometry width="50" height="50" relative="1" as="geometry">
            <mxPoint x="480" y="780" as="sourcePoint" />
            <mxPoint x="500" y="780" as="targetPoint" />
          </mxGeometry>
        </mxCell>
        <mxCell id="CSLr4fiPys_Uv9W4NYpY-37" value="" style="endArrow=classic;html=1;rounded=0;" edge="1" parent="1">
          <mxGeometry width="50" height="50" relative="1" as="geometry">
            <mxPoint x="560" y="1080" as="sourcePoint" />
            <mxPoint x="590" y="1080" as="targetPoint" />
          </mxGeometry>
        </mxCell>
        <mxCell id="CSLr4fiPys_Uv9W4NYpY-38" value="" style="endArrow=classic;html=1;rounded=0;" edge="1" parent="1">
          <mxGeometry width="50" height="50" relative="1" as="geometry">
            <mxPoint x="560" y="980" as="sourcePoint" />
            <mxPoint x="590" y="980" as="targetPoint" />
          </mxGeometry>
        </mxCell>
        <mxCell id="CSLr4fiPys_Uv9W4NYpY-40" value="" style="endArrow=classic;html=1;rounded=0;" edge="1" parent="1">
          <mxGeometry width="50" height="50" relative="1" as="geometry">
            <mxPoint x="560" y="740" as="sourcePoint" />
            <mxPoint x="1140" y="740" as="targetPoint" />
          </mxGeometry>
        </mxCell>
        <mxCell id="CSLr4fiPys_Uv9W4NYpY-42" value="" style="endArrow=none;html=1;rounded=0;" edge="1" parent="1">
          <mxGeometry width="50" height="50" relative="1" as="geometry">
            <mxPoint x="480" y="900" as="sourcePoint" />
            <mxPoint x="480" y="780" as="targetPoint" />
          </mxGeometry>
        </mxCell>
        <mxCell id="CSLr4fiPys_Uv9W4NYpY-43" value="" style="endArrow=none;html=1;rounded=0;strokeWidth=3;" edge="1" parent="1">
          <mxGeometry width="50" height="50" relative="1" as="geometry">
            <mxPoint x="460" y="900" as="sourcePoint" />
            <mxPoint x="460" y="720" as="targetPoint" />
          </mxGeometry>
        </mxCell>
        <mxCell id="CSLr4fiPys_Uv9W4NYpY-44" value="" style="endArrow=classic;html=1;rounded=0;entryX=0;entryY=0.5;entryDx=0;entryDy=0;" edge="1" parent="1" target="CSLr4fiPys_Uv9W4NYpY-31">
          <mxGeometry width="50" height="50" relative="1" as="geometry">
            <mxPoint x="460" y="1080" as="sourcePoint" />
            <mxPoint x="600" y="1090" as="targetPoint" />
          </mxGeometry>
        </mxCell>
        <mxCell id="CSLr4fiPys_Uv9W4NYpY-45" value="" style="endArrow=classic;html=1;rounded=0;entryX=0;entryY=0.5;entryDx=0;entryDy=0;" edge="1" parent="1">
          <mxGeometry width="50" height="50" relative="1" as="geometry">
            <mxPoint x="460" y="980" as="sourcePoint" />
            <mxPoint x="500" y="980" as="targetPoint" />
          </mxGeometry>
        </mxCell>
        <mxCell id="CSLr4fiPys_Uv9W4NYpY-46" value="" style="endArrow=classic;html=1;rounded=0;entryX=0;entryY=0.5;entryDx=0;entryDy=0;" edge="1" parent="1">
          <mxGeometry width="50" height="50" relative="1" as="geometry">
            <mxPoint x="460" y="840" as="sourcePoint" />
            <mxPoint x="500" y="840" as="targetPoint" />
          </mxGeometry>
        </mxCell>
        <mxCell id="CSLr4fiPys_Uv9W4NYpY-47" value="" style="endArrow=classic;html=1;rounded=0;entryX=0;entryY=0.5;entryDx=0;entryDy=0;" edge="1" parent="1">
          <mxGeometry width="50" height="50" relative="1" as="geometry">
            <mxPoint x="460" y="740" as="sourcePoint" />
            <mxPoint x="500" y="740" as="targetPoint" />
          </mxGeometry>
        </mxCell>
        <mxCell id="CSLr4fiPys_Uv9W4NYpY-48" value="" style="endArrow=none;html=1;rounded=0;exitX=0;exitY=0.25;exitDx=0;exitDy=0;startArrow=classic;startFill=1;" edge="1" parent="1" source="CSLr4fiPys_Uv9W4NYpY-223">
          <mxGeometry width="50" height="50" relative="1" as="geometry">
            <mxPoint x="900" y="629.67" as="sourcePoint" />
            <mxPoint x="20" y="629.67" as="targetPoint" />
          </mxGeometry>
        </mxCell>
        <mxCell id="CSLr4fiPys_Uv9W4NYpY-49" value="" style="shape=flexArrow;endArrow=classic;html=1;rounded=0;exitX=1;exitY=0.5;exitDx=0;exitDy=0;" edge="1" parent="1" source="CSLr4fiPys_Uv9W4NYpY-50">
          <mxGeometry width="50" height="50" relative="1" as="geometry">
            <mxPoint x="580" y="1140" as="sourcePoint" />
            <mxPoint x="460" y="980" as="targetPoint" />
          </mxGeometry>
        </mxCell>
        <mxCell id="CSLr4fiPys_Uv9W4NYpY-55" value="" style="endArrow=classic;html=1;rounded=0;entryX=0.5;entryY=0;entryDx=0;entryDy=0;startArrow=oval;startFill=1;" edge="1" parent="1" target="CSLr4fiPys_Uv9W4NYpY-50">
          <mxGeometry width="50" height="50" relative="1" as="geometry">
            <mxPoint x="100" y="130" as="sourcePoint" />
            <mxPoint x="310" y="590" as="targetPoint" />
            <Array as="points">
              <mxPoint x="100" y="760" />
              <mxPoint x="390" y="760" />
            </Array>
          </mxGeometry>
        </mxCell>
        <mxCell id="CSLr4fiPys_Uv9W4NYpY-56" value="" style="shape=flexArrow;endArrow=classic;html=1;rounded=0;entryX=0;entryY=0.5;entryDx=0;entryDy=0;" edge="1" parent="1" target="CSLr4fiPys_Uv9W4NYpY-53">
          <mxGeometry width="50" height="50" relative="1" as="geometry">
            <mxPoint x="320" y="920" as="sourcePoint" />
            <mxPoint x="360" y="759.6700000000001" as="targetPoint" />
            <Array as="points">
              <mxPoint x="320" y="960" />
            </Array>
          </mxGeometry>
        </mxCell>
        <mxCell id="CSLr4fiPys_Uv9W4NYpY-57" value="8b00000000" style="text;html=1;align=center;verticalAlign=middle;whiteSpace=wrap;rounded=0;fontStyle=1;fontSize=14;" vertex="1" parent="1">
          <mxGeometry x="280" y="900" width="90" height="20" as="geometry" />
        </mxCell>
        <mxCell id="CSLr4fiPys_Uv9W4NYpY-58" value="" style="shape=flexArrow;endArrow=classic;html=1;rounded=0;entryX=0;entryY=0.5;entryDx=0;entryDy=0;exitX=1;exitY=0.5;exitDx=0;exitDy=0;" edge="1" parent="1" source="CSLr4fiPys_Uv9W4NYpY-60">
          <mxGeometry width="50" height="50" relative="1" as="geometry">
            <mxPoint x="360" y="1200" as="sourcePoint" />
            <mxPoint x="230" y="1020" as="targetPoint" />
            <Array as="points">
              <mxPoint x="190" y="1220" />
              <mxPoint x="190" y="1020" />
            </Array>
          </mxGeometry>
        </mxCell>
        <mxCell id="CSLr4fiPys_Uv9W4NYpY-59" value="" style="group" vertex="1" connectable="0" parent="1">
          <mxGeometry x="360" y="1180" width="60" height="80" as="geometry" />
        </mxCell>
        <mxCell id="CSLr4fiPys_Uv9W4NYpY-140" value="" style="group" vertex="1" connectable="0" parent="CSLr4fiPys_Uv9W4NYpY-59">
          <mxGeometry x="-3.552713678800501e-15" y="-7.105427357601002e-15" width="60" height="80" as="geometry" />
        </mxCell>
        <mxCell id="CSLr4fiPys_Uv9W4NYpY-60" value="" style="rounded=0;whiteSpace=wrap;html=1;fillColor=#dae8fc;strokeColor=#6c8ebf;container=0;rotation=-180;" vertex="1" parent="CSLr4fiPys_Uv9W4NYpY-140">
          <mxGeometry x="3.552713678800501e-15" y="7.105427357601002e-15" width="60" height="80" as="geometry" />
        </mxCell>
        <mxCell id="CSLr4fiPys_Uv9W4NYpY-61" value="" style="endArrow=none;html=1;rounded=0;exitX=1;exitY=0.5;exitDx=0;exitDy=0;" edge="1" parent="CSLr4fiPys_Uv9W4NYpY-140" source="CSLr4fiPys_Uv9W4NYpY-60">
          <mxGeometry width="50" height="50" relative="1" as="geometry">
            <mxPoint x="10.000000000000004" y="50.00000000000001" as="sourcePoint" />
            <mxPoint x="60" y="7.105427357601002e-15" as="targetPoint" />
          </mxGeometry>
        </mxCell>
        <mxCell id="CSLr4fiPys_Uv9W4NYpY-62" value="" style="endArrow=none;html=1;rounded=0;exitX=1;exitY=0.5;exitDx=0;exitDy=0;" edge="1" parent="CSLr4fiPys_Uv9W4NYpY-140" source="CSLr4fiPys_Uv9W4NYpY-60">
          <mxGeometry width="50" height="50" relative="1" as="geometry">
            <mxPoint x="3.552713678800501e-15" y="40.00000000000001" as="sourcePoint" />
            <mxPoint x="60" y="80" as="targetPoint" />
          </mxGeometry>
        </mxCell>
        <mxCell id="CSLr4fiPys_Uv9W4NYpY-63" value="1" style="text;html=1;align=center;verticalAlign=middle;whiteSpace=wrap;rounded=0;container=0;" vertex="1" parent="CSLr4fiPys_Uv9W4NYpY-140">
          <mxGeometry x="40" y="50.00000000000001" width="20" height="20" as="geometry" />
        </mxCell>
        <mxCell id="CSLr4fiPys_Uv9W4NYpY-64" value="0" style="text;html=1;align=center;verticalAlign=middle;whiteSpace=wrap;rounded=0;container=0;" vertex="1" parent="CSLr4fiPys_Uv9W4NYpY-140">
          <mxGeometry x="40" y="10.000000000000007" width="20" height="20" as="geometry" />
        </mxCell>
        <mxCell id="CSLr4fiPys_Uv9W4NYpY-65" value="" style="shape=flexArrow;endArrow=classic;html=1;rounded=0;entryX=1;entryY=0.5;entryDx=0;entryDy=0;" edge="1" parent="1" target="CSLr4fiPys_Uv9W4NYpY-63">
          <mxGeometry width="50" height="50" relative="1" as="geometry">
            <mxPoint x="720" y="840" as="sourcePoint" />
            <mxPoint x="630" y="1110" as="targetPoint" />
            <Array as="points">
              <mxPoint x="800" y="840" />
              <mxPoint x="800" y="1240" />
            </Array>
          </mxGeometry>
        </mxCell>
        <mxCell id="CSLr4fiPys_Uv9W4NYpY-66" value="" style="shape=flexArrow;endArrow=classic;html=1;rounded=0;" edge="1" parent="1">
          <mxGeometry width="50" height="50" relative="1" as="geometry">
            <mxPoint x="720" y="1120" as="sourcePoint" />
            <mxPoint x="420" y="1200" as="targetPoint" />
            <Array as="points">
              <mxPoint x="760" y="1120" />
              <mxPoint x="760" y="1200" />
            </Array>
          </mxGeometry>
        </mxCell>
        <mxCell id="CSLr4fiPys_Uv9W4NYpY-69" value="&lt;font size=&quot;1&quot; style=&quot;&quot;&gt;&lt;b style=&quot;font-size: 20px;&quot;&gt;+&lt;/b&gt;&lt;/font&gt;" style="ellipse;whiteSpace=wrap;html=1;aspect=fixed;fillColor=#d5e8d4;strokeColor=#82b366;" vertex="1" parent="1">
          <mxGeometry x="570" y="265" width="60" height="60" as="geometry" />
        </mxCell>
        <mxCell id="CSLr4fiPys_Uv9W4NYpY-73" value="&lt;font size=&quot;1&quot; style=&quot;&quot;&gt;&lt;b style=&quot;font-size: 20px;&quot;&gt;==&lt;/b&gt;&lt;/font&gt;" style="ellipse;whiteSpace=wrap;html=1;aspect=fixed;fillColor=#d5e8d4;strokeColor=#82b366;" vertex="1" parent="1">
          <mxGeometry x="570" y="410" width="60" height="60" as="geometry" />
        </mxCell>
        <mxCell id="CSLr4fiPys_Uv9W4NYpY-74" value="" style="endArrow=classic;html=1;rounded=0;exitX=0.5;exitY=1;exitDx=0;exitDy=0;" edge="1" parent="1" source="CSLr4fiPys_Uv9W4NYpY-73">
          <mxGeometry width="50" height="50" relative="1" as="geometry">
            <mxPoint x="210" y="520" as="sourcePoint" />
            <mxPoint x="600" y="510" as="targetPoint" />
          </mxGeometry>
        </mxCell>
        <mxCell id="CSLr4fiPys_Uv9W4NYpY-75" value="" style="shape=flexArrow;endArrow=classic;html=1;rounded=0;" edge="1" parent="1">
          <mxGeometry width="50" height="50" relative="1" as="geometry">
            <mxPoint x="599.6599999999999" y="370" as="sourcePoint" />
            <mxPoint x="599.6599999999999" y="410" as="targetPoint" />
          </mxGeometry>
        </mxCell>
        <mxCell id="CSLr4fiPys_Uv9W4NYpY-76" value="4b1000" style="text;html=1;align=center;verticalAlign=middle;whiteSpace=wrap;rounded=0;fontStyle=1;fontSize=14;" vertex="1" parent="1">
          <mxGeometry x="575" y="350" width="50" height="20" as="geometry" />
        </mxCell>
        <mxCell id="CSLr4fiPys_Uv9W4NYpY-77" value="4b0001" style="text;html=1;align=center;verticalAlign=middle;whiteSpace=wrap;rounded=0;fontStyle=1;fontSize=14;" vertex="1" parent="1">
          <mxGeometry x="575" y="205" width="50" height="20" as="geometry" />
        </mxCell>
        <mxCell id="CSLr4fiPys_Uv9W4NYpY-78" value="Q + 1" style="text;html=1;align=center;verticalAlign=middle;whiteSpace=wrap;rounded=0;fontSize=14;fontStyle=1" vertex="1" parent="1">
          <mxGeometry x="640" y="270" width="50" height="20" as="geometry" />
        </mxCell>
        <mxCell id="CSLr4fiPys_Uv9W4NYpY-79" value="Q = 8" style="text;html=1;align=center;verticalAlign=middle;whiteSpace=wrap;rounded=0;fontSize=14;fontStyle=1" vertex="1" parent="1">
          <mxGeometry x="600" y="470" width="50" height="20" as="geometry" />
        </mxCell>
        <mxCell id="CSLr4fiPys_Uv9W4NYpY-81" value="" style="shape=flexArrow;endArrow=classic;html=1;rounded=0;" edge="1" parent="1">
          <mxGeometry width="50" height="50" relative="1" as="geometry">
            <mxPoint x="599.31" y="225" as="sourcePoint" />
            <mxPoint x="599.31" y="265" as="targetPoint" />
          </mxGeometry>
        </mxCell>
        <mxCell id="CSLr4fiPys_Uv9W4NYpY-82" value="" style="shape=flexArrow;endArrow=classic;html=1;rounded=0;" edge="1" parent="1">
          <mxGeometry width="50" height="50" relative="1" as="geometry">
            <mxPoint x="590" y="1080" as="sourcePoint" />
            <mxPoint x="720" y="1080.3300000000002" as="targetPoint" />
          </mxGeometry>
        </mxCell>
        <mxCell id="CSLr4fiPys_Uv9W4NYpY-92" value="" style="endArrow=classic;html=1;rounded=0;exitX=1;exitY=0.5;exitDx=0;exitDy=0;" edge="1" parent="1">
          <mxGeometry width="50" height="50" relative="1" as="geometry">
            <mxPoint x="1040" y="639.6700000000001" as="sourcePoint" />
            <mxPoint x="1140" y="640" as="targetPoint" />
          </mxGeometry>
        </mxCell>
        <mxCell id="CSLr4fiPys_Uv9W4NYpY-95" value="" style="group" vertex="1" connectable="0" parent="1">
          <mxGeometry x="360" y="940" width="60" height="80" as="geometry" />
        </mxCell>
        <mxCell id="CSLr4fiPys_Uv9W4NYpY-50" value="" style="rounded=0;whiteSpace=wrap;html=1;fillColor=#dae8fc;strokeColor=#6c8ebf;container=0;" vertex="1" parent="CSLr4fiPys_Uv9W4NYpY-95">
          <mxGeometry width="60" height="80" as="geometry" />
        </mxCell>
        <mxCell id="CSLr4fiPys_Uv9W4NYpY-51" value="" style="endArrow=none;html=1;rounded=0;exitX=0;exitY=0;exitDx=0;exitDy=0;entryX=1;entryY=0.5;entryDx=0;entryDy=0;" edge="1" parent="CSLr4fiPys_Uv9W4NYpY-95">
          <mxGeometry width="50" height="50" relative="1" as="geometry">
            <mxPoint as="sourcePoint" />
            <mxPoint x="60" y="40" as="targetPoint" />
          </mxGeometry>
        </mxCell>
        <mxCell id="CSLr4fiPys_Uv9W4NYpY-52" value="" style="endArrow=none;html=1;rounded=0;exitX=0;exitY=1;exitDx=0;exitDy=0;entryX=1;entryY=0.5;entryDx=0;entryDy=0;" edge="1" parent="CSLr4fiPys_Uv9W4NYpY-95" source="CSLr4fiPys_Uv9W4NYpY-50" target="CSLr4fiPys_Uv9W4NYpY-50">
          <mxGeometry width="50" height="50" relative="1" as="geometry">
            <mxPoint x="80" y="-60" as="sourcePoint" />
            <mxPoint x="130" y="-110" as="targetPoint" />
          </mxGeometry>
        </mxCell>
        <mxCell id="CSLr4fiPys_Uv9W4NYpY-53" value="1" style="text;html=1;align=center;verticalAlign=middle;whiteSpace=wrap;rounded=0;container=0;" vertex="1" parent="CSLr4fiPys_Uv9W4NYpY-95">
          <mxGeometry y="10" width="20" height="20" as="geometry" />
        </mxCell>
        <mxCell id="CSLr4fiPys_Uv9W4NYpY-54" value="0" style="text;html=1;align=center;verticalAlign=middle;whiteSpace=wrap;rounded=0;container=0;" vertex="1" parent="CSLr4fiPys_Uv9W4NYpY-95">
          <mxGeometry y="50" width="20" height="20" as="geometry" />
        </mxCell>
        <mxCell id="CSLr4fiPys_Uv9W4NYpY-122" value="" style="endArrow=classic;html=1;rounded=0;" edge="1" parent="1">
          <mxGeometry width="50" height="50" relative="1" as="geometry">
            <mxPoint x="560" y="839.67" as="sourcePoint" />
            <mxPoint x="590" y="839.67" as="targetPoint" />
          </mxGeometry>
        </mxCell>
        <mxCell id="CSLr4fiPys_Uv9W4NYpY-123" value="" style="endArrow=none;html=1;rounded=0;strokeWidth=3;" edge="1" parent="1">
          <mxGeometry width="50" height="50" relative="1" as="geometry">
            <mxPoint x="460" y="1140" as="sourcePoint" />
            <mxPoint x="460" y="960" as="targetPoint" />
          </mxGeometry>
        </mxCell>
        <mxCell id="CSLr4fiPys_Uv9W4NYpY-124" value="" style="endArrow=none;html=1;rounded=0;strokeWidth=3;dashed=1;" edge="1" parent="1">
          <mxGeometry width="50" height="50" relative="1" as="geometry">
            <mxPoint x="460" y="950" as="sourcePoint" />
            <mxPoint x="460" y="900" as="targetPoint" />
          </mxGeometry>
        </mxCell>
        <mxCell id="CSLr4fiPys_Uv9W4NYpY-125" value="" style="endArrow=none;html=1;rounded=0;" edge="1" parent="1">
          <mxGeometry width="50" height="50" relative="1" as="geometry">
            <mxPoint x="480" y="1120" as="sourcePoint" />
            <mxPoint x="480" y="960" as="targetPoint" />
          </mxGeometry>
        </mxCell>
        <mxCell id="CSLr4fiPys_Uv9W4NYpY-126" value="" style="endArrow=none;html=1;rounded=0;dashed=1;dashPattern=8 8;" edge="1" parent="1">
          <mxGeometry width="50" height="50" relative="1" as="geometry">
            <mxPoint x="480" y="960" as="sourcePoint" />
            <mxPoint x="480" y="900" as="targetPoint" />
          </mxGeometry>
        </mxCell>
        <mxCell id="CSLr4fiPys_Uv9W4NYpY-127" value="" style="endArrow=none;html=1;rounded=0;strokeWidth=3;" edge="1" parent="1">
          <mxGeometry width="50" height="50" relative="1" as="geometry">
            <mxPoint x="590" y="900" as="sourcePoint" />
            <mxPoint x="590" y="820" as="targetPoint" />
          </mxGeometry>
        </mxCell>
        <mxCell id="CSLr4fiPys_Uv9W4NYpY-128" value="" style="endArrow=none;html=1;rounded=0;strokeWidth=3;" edge="1" parent="1">
          <mxGeometry width="50" height="50" relative="1" as="geometry">
            <mxPoint x="590" y="1140" as="sourcePoint" />
            <mxPoint x="590" y="960" as="targetPoint" />
          </mxGeometry>
        </mxCell>
        <mxCell id="CSLr4fiPys_Uv9W4NYpY-129" value="" style="endArrow=none;html=1;rounded=0;strokeWidth=3;dashed=1;" edge="1" parent="1">
          <mxGeometry width="50" height="50" relative="1" as="geometry">
            <mxPoint x="590" y="950" as="sourcePoint" />
            <mxPoint x="590" y="900" as="targetPoint" />
          </mxGeometry>
        </mxCell>
        <mxCell id="CSLr4fiPys_Uv9W4NYpY-136" value="" style="shape=flexArrow;endArrow=classic;html=1;rounded=0;entryX=0;entryY=0.5;entryDx=0;entryDy=0;" edge="1" parent="1" target="CSLr4fiPys_Uv9W4NYpY-54">
          <mxGeometry width="50" height="50" relative="1" as="geometry">
            <mxPoint x="290" y="1000" as="sourcePoint" />
            <mxPoint x="360" y="859.6700000000001" as="targetPoint" />
          </mxGeometry>
        </mxCell>
        <mxCell id="CSLr4fiPys_Uv9W4NYpY-137" value="&amp;amp;" style="rounded=0;whiteSpace=wrap;html=1;fontStyle=1;fontSize=16;fillColor=#f8cecc;strokeColor=#b85450;container=0;" vertex="1" parent="1">
          <mxGeometry x="240" y="810" width="40" height="40" as="geometry" />
        </mxCell>
        <mxCell id="CSLr4fiPys_Uv9W4NYpY-138" value="" style="endArrow=classic;html=1;rounded=0;exitX=0.5;exitY=1;exitDx=0;exitDy=0;entryX=0.5;entryY=0;entryDx=0;entryDy=0;" edge="1" parent="1" source="CSLr4fiPys_Uv9W4NYpY-137">
          <mxGeometry width="50" height="50" relative="1" as="geometry">
            <mxPoint x="210" y="1010" as="sourcePoint" />
            <mxPoint x="260" y="960" as="targetPoint" />
            <Array as="points" />
          </mxGeometry>
        </mxCell>
        <mxCell id="CSLr4fiPys_Uv9W4NYpY-139" value="" style="shape=flexArrow;endArrow=classic;html=1;rounded=0;entryX=0;entryY=0.5;entryDx=0;entryDy=0;" edge="1" parent="1">
          <mxGeometry width="50" height="50" relative="1" as="geometry">
            <mxPoint x="20" y="979.66" as="sourcePoint" />
            <mxPoint x="230" y="979.33" as="targetPoint" />
          </mxGeometry>
        </mxCell>
        <mxCell id="CSLr4fiPys_Uv9W4NYpY-146" value="|" style="rounded=0;whiteSpace=wrap;html=1;fontStyle=1;fontSize=16;fillColor=#f8cecc;strokeColor=#b85450;container=0;" vertex="1" parent="1">
          <mxGeometry x="780" y="140" width="40" height="40" as="geometry" />
        </mxCell>
        <mxCell id="CSLr4fiPys_Uv9W4NYpY-147" value="!" style="rounded=0;whiteSpace=wrap;html=1;fontStyle=1;fontSize=16;fillColor=#f8cecc;strokeColor=#b85450;container=0;" vertex="1" parent="1">
          <mxGeometry x="780" y="40" width="40" height="40" as="geometry" />
        </mxCell>
        <mxCell id="CSLr4fiPys_Uv9W4NYpY-148" value="!" style="rounded=0;whiteSpace=wrap;html=1;fontStyle=1;fontSize=16;fillColor=#f8cecc;strokeColor=#b85450;container=0;" vertex="1" parent="1">
          <mxGeometry x="840" y="140" width="40" height="40" as="geometry" />
        </mxCell>
        <mxCell id="CSLr4fiPys_Uv9W4NYpY-149" value="&amp;amp;" style="rounded=0;whiteSpace=wrap;html=1;fontStyle=1;fontSize=16;fillColor=#f8cecc;strokeColor=#b85450;container=0;" vertex="1" parent="1">
          <mxGeometry x="920" y="130" width="40" height="40" as="geometry" />
        </mxCell>
        <mxCell id="CSLr4fiPys_Uv9W4NYpY-150" value="" style="endArrow=classic;html=1;rounded=0;entryX=0;entryY=0.75;entryDx=0;entryDy=0;exitX=1;exitY=0.5;exitDx=0;exitDy=0;" edge="1" parent="1" source="CSLr4fiPys_Uv9W4NYpY-148" target="CSLr4fiPys_Uv9W4NYpY-149">
          <mxGeometry width="50" height="50" relative="1" as="geometry">
            <mxPoint x="870" y="480" as="sourcePoint" />
            <mxPoint x="920" y="430" as="targetPoint" />
          </mxGeometry>
        </mxCell>
        <mxCell id="CSLr4fiPys_Uv9W4NYpY-151" value="" style="endArrow=classic;html=1;rounded=0;entryX=0;entryY=0.25;entryDx=0;entryDy=0;exitX=1;exitY=0.5;exitDx=0;exitDy=0;" edge="1" parent="1" source="CSLr4fiPys_Uv9W4NYpY-147" target="CSLr4fiPys_Uv9W4NYpY-149">
          <mxGeometry width="50" height="50" relative="1" as="geometry">
            <mxPoint x="910" y="200" as="sourcePoint" />
            <mxPoint x="950" y="170" as="targetPoint" />
            <Array as="points">
              <mxPoint x="900" y="60" />
              <mxPoint x="900" y="140" />
            </Array>
          </mxGeometry>
        </mxCell>
        <mxCell id="CSLr4fiPys_Uv9W4NYpY-152" value="" style="endArrow=classic;html=1;rounded=0;exitX=1;exitY=0.5;exitDx=0;exitDy=0;entryX=0;entryY=0.5;entryDx=0;entryDy=0;" edge="1" parent="1" source="CSLr4fiPys_Uv9W4NYpY-146" target="CSLr4fiPys_Uv9W4NYpY-148">
          <mxGeometry width="50" height="50" relative="1" as="geometry">
            <mxPoint x="870" y="480" as="sourcePoint" />
            <mxPoint x="1050" y="220" as="targetPoint" />
          </mxGeometry>
        </mxCell>
        <mxCell id="CSLr4fiPys_Uv9W4NYpY-154" value="start_in" style="text;html=1;align=center;verticalAlign=middle;whiteSpace=wrap;rounded=0;fontStyle=1" vertex="1" parent="1">
          <mxGeometry x="20" y="810" width="50" height="20" as="geometry" />
        </mxCell>
        <mxCell id="CSLr4fiPys_Uv9W4NYpY-155" value="ready_out" style="text;html=1;align=center;verticalAlign=middle;whiteSpace=wrap;rounded=0;fontStyle=1" vertex="1" parent="1">
          <mxGeometry x="1070" y="120" width="70" height="30" as="geometry" />
        </mxCell>
        <mxCell id="CSLr4fiPys_Uv9W4NYpY-160" value="" style="group" vertex="1" connectable="0" parent="1">
          <mxGeometry x="360" y="120" width="60" height="80" as="geometry" />
        </mxCell>
        <mxCell id="CSLr4fiPys_Uv9W4NYpY-161" value="" style="rounded=1;whiteSpace=wrap;html=1;fillColor=#fff2cc;strokeColor=#d6b656;container=0;" vertex="1" parent="CSLr4fiPys_Uv9W4NYpY-160">
          <mxGeometry width="60" height="80" as="geometry" />
        </mxCell>
        <mxCell id="CSLr4fiPys_Uv9W4NYpY-162" value="" style="triangle;whiteSpace=wrap;html=1;rotation=0;container=0;" vertex="1" parent="CSLr4fiPys_Uv9W4NYpY-160">
          <mxGeometry y="50" width="7.03" height="20" as="geometry" />
        </mxCell>
        <mxCell id="CSLr4fiPys_Uv9W4NYpY-163" value="D" style="text;html=1;align=center;verticalAlign=middle;whiteSpace=wrap;rounded=0;container=0;" vertex="1" parent="CSLr4fiPys_Uv9W4NYpY-160">
          <mxGeometry y="10" width="20" height="20" as="geometry" />
        </mxCell>
        <mxCell id="CSLr4fiPys_Uv9W4NYpY-164" value="Q" style="text;html=1;align=center;verticalAlign=middle;whiteSpace=wrap;rounded=0;container=0;" vertex="1" parent="CSLr4fiPys_Uv9W4NYpY-160">
          <mxGeometry x="40" y="10" width="20" height="20" as="geometry" />
        </mxCell>
        <mxCell id="CSLr4fiPys_Uv9W4NYpY-165" value="" style="group" vertex="1" connectable="0" parent="1">
          <mxGeometry x="360" y="220" width="60" height="80" as="geometry" />
        </mxCell>
        <mxCell id="CSLr4fiPys_Uv9W4NYpY-166" value="" style="rounded=1;whiteSpace=wrap;html=1;fillColor=#fff2cc;strokeColor=#d6b656;container=0;" vertex="1" parent="CSLr4fiPys_Uv9W4NYpY-165">
          <mxGeometry width="60" height="80" as="geometry" />
        </mxCell>
        <mxCell id="CSLr4fiPys_Uv9W4NYpY-167" value="" style="triangle;whiteSpace=wrap;html=1;rotation=0;container=0;" vertex="1" parent="CSLr4fiPys_Uv9W4NYpY-165">
          <mxGeometry y="50" width="7.03" height="20" as="geometry" />
        </mxCell>
        <mxCell id="CSLr4fiPys_Uv9W4NYpY-168" value="D" style="text;html=1;align=center;verticalAlign=middle;whiteSpace=wrap;rounded=0;container=0;" vertex="1" parent="CSLr4fiPys_Uv9W4NYpY-165">
          <mxGeometry y="10" width="20" height="20" as="geometry" />
        </mxCell>
        <mxCell id="CSLr4fiPys_Uv9W4NYpY-169" value="Q" style="text;html=1;align=center;verticalAlign=middle;whiteSpace=wrap;rounded=0;container=0;" vertex="1" parent="CSLr4fiPys_Uv9W4NYpY-165">
          <mxGeometry x="40" y="10" width="20" height="20" as="geometry" />
        </mxCell>
        <mxCell id="CSLr4fiPys_Uv9W4NYpY-170" value="" style="group" vertex="1" connectable="0" parent="1">
          <mxGeometry x="360" y="320" width="60" height="80" as="geometry" />
        </mxCell>
        <mxCell id="CSLr4fiPys_Uv9W4NYpY-171" value="" style="rounded=1;whiteSpace=wrap;html=1;fillColor=#fff2cc;strokeColor=#d6b656;container=0;" vertex="1" parent="CSLr4fiPys_Uv9W4NYpY-170">
          <mxGeometry width="60" height="80" as="geometry" />
        </mxCell>
        <mxCell id="CSLr4fiPys_Uv9W4NYpY-172" value="" style="triangle;whiteSpace=wrap;html=1;rotation=0;container=0;" vertex="1" parent="CSLr4fiPys_Uv9W4NYpY-170">
          <mxGeometry y="50" width="7.03" height="20" as="geometry" />
        </mxCell>
        <mxCell id="CSLr4fiPys_Uv9W4NYpY-173" value="D" style="text;html=1;align=center;verticalAlign=middle;whiteSpace=wrap;rounded=0;container=0;" vertex="1" parent="CSLr4fiPys_Uv9W4NYpY-170">
          <mxGeometry y="10" width="20" height="20" as="geometry" />
        </mxCell>
        <mxCell id="CSLr4fiPys_Uv9W4NYpY-174" value="Q" style="text;html=1;align=center;verticalAlign=middle;whiteSpace=wrap;rounded=0;container=0;" vertex="1" parent="CSLr4fiPys_Uv9W4NYpY-170">
          <mxGeometry x="40" y="10" width="20" height="20" as="geometry" />
        </mxCell>
        <mxCell id="CSLr4fiPys_Uv9W4NYpY-175" value="" style="endArrow=none;html=1;rounded=0;strokeWidth=3;" edge="1" parent="1">
          <mxGeometry width="50" height="50" relative="1" as="geometry">
            <mxPoint x="320" y="500" as="sourcePoint" />
            <mxPoint x="320" y="120" as="targetPoint" />
          </mxGeometry>
        </mxCell>
        <mxCell id="CSLr4fiPys_Uv9W4NYpY-178" value="" style="endArrow=classic;html=1;rounded=0;entryX=0;entryY=0.5;entryDx=0;entryDy=0;" edge="1" parent="1">
          <mxGeometry width="50" height="50" relative="1" as="geometry">
            <mxPoint x="320" y="340" as="sourcePoint" />
            <mxPoint x="360" y="340" as="targetPoint" />
          </mxGeometry>
        </mxCell>
        <mxCell id="CSLr4fiPys_Uv9W4NYpY-179" value="" style="endArrow=classic;html=1;rounded=0;entryX=0;entryY=0.5;entryDx=0;entryDy=0;" edge="1" parent="1">
          <mxGeometry width="50" height="50" relative="1" as="geometry">
            <mxPoint x="320" y="240" as="sourcePoint" />
            <mxPoint x="360" y="240" as="targetPoint" />
          </mxGeometry>
        </mxCell>
        <mxCell id="CSLr4fiPys_Uv9W4NYpY-180" value="" style="endArrow=classic;html=1;rounded=0;entryX=0;entryY=0.5;entryDx=0;entryDy=0;" edge="1" parent="1">
          <mxGeometry width="50" height="50" relative="1" as="geometry">
            <mxPoint x="320" y="140" as="sourcePoint" />
            <mxPoint x="360" y="140" as="targetPoint" />
          </mxGeometry>
        </mxCell>
        <mxCell id="CSLr4fiPys_Uv9W4NYpY-181" value="" style="endArrow=classic;html=1;rounded=0;entryX=0;entryY=0.75;entryDx=0;entryDy=0;" edge="1" parent="1" target="CSLr4fiPys_Uv9W4NYpY-166">
          <mxGeometry width="50" height="50" relative="1" as="geometry">
            <mxPoint x="340" y="280" as="sourcePoint" />
            <mxPoint x="380" y="260" as="targetPoint" />
          </mxGeometry>
        </mxCell>
        <mxCell id="CSLr4fiPys_Uv9W4NYpY-182" value="" style="endArrow=classic;html=1;rounded=0;entryX=0;entryY=0.5;entryDx=0;entryDy=0;" edge="1" parent="1" target="CSLr4fiPys_Uv9W4NYpY-172">
          <mxGeometry width="50" height="50" relative="1" as="geometry">
            <mxPoint x="340" y="380" as="sourcePoint" />
            <mxPoint x="370" y="290" as="targetPoint" />
          </mxGeometry>
        </mxCell>
        <mxCell id="CSLr4fiPys_Uv9W4NYpY-183" value="" style="endArrow=classic;html=1;rounded=0;entryX=0;entryY=0.5;entryDx=0;entryDy=0;startArrow=oval;startFill=1;" edge="1" parent="1" target="CSLr4fiPys_Uv9W4NYpY-162">
          <mxGeometry width="50" height="50" relative="1" as="geometry">
            <mxPoint x="120" y="630" as="sourcePoint" />
            <mxPoint x="380" y="300" as="targetPoint" />
            <Array as="points">
              <mxPoint x="120" y="520" />
              <mxPoint x="340" y="520" />
              <mxPoint x="340" y="180" />
            </Array>
          </mxGeometry>
        </mxCell>
        <mxCell id="CSLr4fiPys_Uv9W4NYpY-184" value="" style="endArrow=none;html=1;rounded=0;strokeWidth=3;" edge="1" parent="1">
          <mxGeometry width="50" height="50" relative="1" as="geometry">
            <mxPoint x="450" y="500" as="sourcePoint" />
            <mxPoint x="450" y="120" as="targetPoint" />
          </mxGeometry>
        </mxCell>
        <mxCell id="CSLr4fiPys_Uv9W4NYpY-185" value="" style="endArrow=classic;html=1;rounded=0;exitX=1;exitY=0.5;exitDx=0;exitDy=0;" edge="1" parent="1" source="CSLr4fiPys_Uv9W4NYpY-169">
          <mxGeometry width="50" height="50" relative="1" as="geometry">
            <mxPoint x="430" y="610" as="sourcePoint" />
            <mxPoint x="450" y="240" as="targetPoint" />
          </mxGeometry>
        </mxCell>
        <mxCell id="CSLr4fiPys_Uv9W4NYpY-186" value="" style="endArrow=classic;html=1;rounded=0;exitX=1;exitY=0.5;exitDx=0;exitDy=0;" edge="1" parent="1" source="CSLr4fiPys_Uv9W4NYpY-174">
          <mxGeometry width="50" height="50" relative="1" as="geometry">
            <mxPoint x="520" y="680" as="sourcePoint" />
            <mxPoint x="450" y="340" as="targetPoint" />
          </mxGeometry>
        </mxCell>
        <mxCell id="CSLr4fiPys_Uv9W4NYpY-187" value="" style="endArrow=classic;html=1;rounded=0;exitX=1;exitY=0.25;exitDx=0;exitDy=0;" edge="1" parent="1" source="CSLr4fiPys_Uv9W4NYpY-161">
          <mxGeometry width="50" height="50" relative="1" as="geometry">
            <mxPoint x="430" y="250" as="sourcePoint" />
            <mxPoint x="450" y="140" as="targetPoint" />
          </mxGeometry>
        </mxCell>
        <mxCell id="CSLr4fiPys_Uv9W4NYpY-188" value="" style="shape=flexArrow;endArrow=classic;html=1;rounded=0;entryX=0;entryY=0.5;entryDx=0;entryDy=0;" edge="1" parent="1">
          <mxGeometry width="50" height="50" relative="1" as="geometry">
            <mxPoint x="450" y="160.00000000000003" as="sourcePoint" />
            <mxPoint x="780" y="160.33" as="targetPoint" />
          </mxGeometry>
        </mxCell>
        <mxCell id="CSLr4fiPys_Uv9W4NYpY-189" value="" style="endArrow=classic;html=1;rounded=0;entryX=0;entryY=0.5;entryDx=0;entryDy=0;exitX=0;exitY=1;exitDx=0;exitDy=0;" edge="1" parent="1" source="CSLr4fiPys_Uv9W4NYpY-10" target="CSLr4fiPys_Uv9W4NYpY-147">
          <mxGeometry width="50" height="50" relative="1" as="geometry">
            <mxPoint x="330" y="60" as="sourcePoint" />
            <mxPoint x="580" y="360" as="targetPoint" />
          </mxGeometry>
        </mxCell>
        <mxCell id="CSLr4fiPys_Uv9W4NYpY-191" value="" style="group" vertex="1" connectable="0" parent="1">
          <mxGeometry x="360" y="420" width="60" height="80" as="geometry" />
        </mxCell>
        <mxCell id="CSLr4fiPys_Uv9W4NYpY-192" value="" style="rounded=1;whiteSpace=wrap;html=1;fillColor=#fff2cc;strokeColor=#d6b656;container=0;" vertex="1" parent="CSLr4fiPys_Uv9W4NYpY-191">
          <mxGeometry width="60" height="80" as="geometry" />
        </mxCell>
        <mxCell id="CSLr4fiPys_Uv9W4NYpY-193" value="" style="triangle;whiteSpace=wrap;html=1;rotation=0;container=0;" vertex="1" parent="CSLr4fiPys_Uv9W4NYpY-191">
          <mxGeometry y="50" width="7.03" height="20" as="geometry" />
        </mxCell>
        <mxCell id="CSLr4fiPys_Uv9W4NYpY-194" value="D" style="text;html=1;align=center;verticalAlign=middle;whiteSpace=wrap;rounded=0;container=0;" vertex="1" parent="CSLr4fiPys_Uv9W4NYpY-191">
          <mxGeometry y="10" width="20" height="20" as="geometry" />
        </mxCell>
        <mxCell id="CSLr4fiPys_Uv9W4NYpY-195" value="Q" style="text;html=1;align=center;verticalAlign=middle;whiteSpace=wrap;rounded=0;container=0;" vertex="1" parent="CSLr4fiPys_Uv9W4NYpY-191">
          <mxGeometry x="40" y="10" width="20" height="20" as="geometry" />
        </mxCell>
        <mxCell id="CSLr4fiPys_Uv9W4NYpY-196" value="" style="endArrow=classic;html=1;rounded=0;exitX=1;exitY=0.5;exitDx=0;exitDy=0;" edge="1" parent="1" source="CSLr4fiPys_Uv9W4NYpY-195">
          <mxGeometry width="50" height="50" relative="1" as="geometry">
            <mxPoint x="430" y="350" as="sourcePoint" />
            <mxPoint x="450" y="440" as="targetPoint" />
          </mxGeometry>
        </mxCell>
        <mxCell id="CSLr4fiPys_Uv9W4NYpY-197" value="" style="endArrow=classic;html=1;rounded=0;entryX=0;entryY=0.5;entryDx=0;entryDy=0;" edge="1" parent="1">
          <mxGeometry width="50" height="50" relative="1" as="geometry">
            <mxPoint x="320" y="440" as="sourcePoint" />
            <mxPoint x="360" y="440" as="targetPoint" />
          </mxGeometry>
        </mxCell>
        <mxCell id="CSLr4fiPys_Uv9W4NYpY-198" value="" style="endArrow=classic;html=1;rounded=0;entryX=0;entryY=0.5;entryDx=0;entryDy=0;" edge="1" parent="1">
          <mxGeometry width="50" height="50" relative="1" as="geometry">
            <mxPoint x="340" y="480" as="sourcePoint" />
            <mxPoint x="360" y="480" as="targetPoint" />
          </mxGeometry>
        </mxCell>
        <mxCell id="CSLr4fiPys_Uv9W4NYpY-199" value="" style="shape=flexArrow;endArrow=classic;html=1;rounded=0;entryX=0;entryY=0.5;entryDx=0;entryDy=0;" edge="1" parent="1">
          <mxGeometry width="50" height="50" relative="1" as="geometry">
            <mxPoint x="450" y="160" as="sourcePoint" />
            <mxPoint x="570" y="295" as="targetPoint" />
            <Array as="points">
              <mxPoint x="510" y="160" />
              <mxPoint x="510" y="295" />
            </Array>
          </mxGeometry>
        </mxCell>
        <mxCell id="CSLr4fiPys_Uv9W4NYpY-200" value="" style="shape=flexArrow;endArrow=classic;html=1;rounded=0;entryX=0;entryY=0.583;entryDx=0;entryDy=0;entryPerimeter=0;" edge="1" parent="1" target="CSLr4fiPys_Uv9W4NYpY-73">
          <mxGeometry width="50" height="50" relative="1" as="geometry">
            <mxPoint x="450" y="160" as="sourcePoint" />
            <mxPoint x="600" y="180" as="targetPoint" />
            <Array as="points">
              <mxPoint x="510" y="160" />
              <mxPoint x="510" y="445" />
            </Array>
          </mxGeometry>
        </mxCell>
        <mxCell id="CSLr4fiPys_Uv9W4NYpY-201" value="" style="shape=flexArrow;endArrow=classic;html=1;rounded=0;entryX=1;entryY=0.5;entryDx=0;entryDy=0;" edge="1" parent="1" target="CSLr4fiPys_Uv9W4NYpY-208">
          <mxGeometry width="50" height="50" relative="1" as="geometry">
            <mxPoint x="630" y="294.67" as="sourcePoint" />
            <mxPoint x="720" y="295" as="targetPoint" />
            <Array as="points">
              <mxPoint x="680" y="295" />
              <mxPoint x="680" y="530" />
            </Array>
          </mxGeometry>
        </mxCell>
        <mxCell id="CSLr4fiPys_Uv9W4NYpY-202" value="" style="group" vertex="1" connectable="0" parent="1">
          <mxGeometry x="570" y="510" width="60" height="80" as="geometry" />
        </mxCell>
        <mxCell id="CSLr4fiPys_Uv9W4NYpY-203" value="" style="group" vertex="1" connectable="0" parent="CSLr4fiPys_Uv9W4NYpY-202">
          <mxGeometry x="-3.552713678800501e-15" y="-7.105427357601002e-15" width="60" height="80" as="geometry" />
        </mxCell>
        <mxCell id="CSLr4fiPys_Uv9W4NYpY-204" value="" style="rounded=0;whiteSpace=wrap;html=1;fillColor=#dae8fc;strokeColor=#6c8ebf;container=0;rotation=-180;" vertex="1" parent="CSLr4fiPys_Uv9W4NYpY-203">
          <mxGeometry x="3.552713678800501e-15" y="7.105427357601002e-15" width="60" height="80" as="geometry" />
        </mxCell>
        <mxCell id="CSLr4fiPys_Uv9W4NYpY-205" value="" style="endArrow=none;html=1;rounded=0;exitX=1;exitY=0.5;exitDx=0;exitDy=0;" edge="1" parent="CSLr4fiPys_Uv9W4NYpY-203" source="CSLr4fiPys_Uv9W4NYpY-204">
          <mxGeometry width="50" height="50" relative="1" as="geometry">
            <mxPoint x="10.000000000000004" y="50.00000000000001" as="sourcePoint" />
            <mxPoint x="60" y="7.105427357601002e-15" as="targetPoint" />
          </mxGeometry>
        </mxCell>
        <mxCell id="CSLr4fiPys_Uv9W4NYpY-206" value="" style="endArrow=none;html=1;rounded=0;exitX=1;exitY=0.5;exitDx=0;exitDy=0;" edge="1" parent="CSLr4fiPys_Uv9W4NYpY-203" source="CSLr4fiPys_Uv9W4NYpY-204">
          <mxGeometry width="50" height="50" relative="1" as="geometry">
            <mxPoint x="3.552713678800501e-15" y="40.00000000000001" as="sourcePoint" />
            <mxPoint x="60" y="80" as="targetPoint" />
          </mxGeometry>
        </mxCell>
        <mxCell id="CSLr4fiPys_Uv9W4NYpY-207" value="1" style="text;html=1;align=center;verticalAlign=middle;whiteSpace=wrap;rounded=0;container=0;" vertex="1" parent="CSLr4fiPys_Uv9W4NYpY-203">
          <mxGeometry x="40" y="50.00000000000001" width="20" height="20" as="geometry" />
        </mxCell>
        <mxCell id="CSLr4fiPys_Uv9W4NYpY-208" value="0" style="text;html=1;align=center;verticalAlign=middle;whiteSpace=wrap;rounded=0;container=0;" vertex="1" parent="CSLr4fiPys_Uv9W4NYpY-203">
          <mxGeometry x="40" y="10.000000000000007" width="20" height="20" as="geometry" />
        </mxCell>
        <mxCell id="CSLr4fiPys_Uv9W4NYpY-209" value="" style="shape=flexArrow;endArrow=classic;html=1;rounded=0;" edge="1" parent="1">
          <mxGeometry width="50" height="50" relative="1" as="geometry">
            <mxPoint x="670" y="565" as="sourcePoint" />
            <mxPoint x="630" y="565" as="targetPoint" />
          </mxGeometry>
        </mxCell>
        <mxCell id="CSLr4fiPys_Uv9W4NYpY-210" value="4b0000" style="text;html=1;align=center;verticalAlign=middle;whiteSpace=wrap;rounded=0;fontStyle=1;fontSize=14;" vertex="1" parent="1">
          <mxGeometry x="670" y="550" width="60" height="30" as="geometry" />
        </mxCell>
        <mxCell id="CSLr4fiPys_Uv9W4NYpY-211" value="" style="shape=flexArrow;endArrow=classic;html=1;rounded=0;exitX=1;exitY=0.5;exitDx=0;exitDy=0;" edge="1" parent="1" source="CSLr4fiPys_Uv9W4NYpY-215">
          <mxGeometry width="50" height="50" relative="1" as="geometry">
            <mxPoint x="440" y="400" as="sourcePoint" />
            <mxPoint x="320" y="240" as="targetPoint" />
          </mxGeometry>
        </mxCell>
        <mxCell id="CSLr4fiPys_Uv9W4NYpY-212" value="" style="shape=flexArrow;endArrow=classic;html=1;rounded=0;entryX=0;entryY=0.5;entryDx=0;entryDy=0;" edge="1" parent="1" target="CSLr4fiPys_Uv9W4NYpY-218">
          <mxGeometry width="50" height="50" relative="1" as="geometry">
            <mxPoint x="180" y="180" as="sourcePoint" />
            <mxPoint x="220" y="19.670000000000073" as="targetPoint" />
            <Array as="points">
              <mxPoint x="180" y="220" />
            </Array>
          </mxGeometry>
        </mxCell>
        <mxCell id="CSLr4fiPys_Uv9W4NYpY-213" value="4b0000" style="text;html=1;align=center;verticalAlign=middle;whiteSpace=wrap;rounded=0;fontStyle=1;fontSize=14;" vertex="1" parent="1">
          <mxGeometry x="140" y="160" width="80" height="20" as="geometry" />
        </mxCell>
        <mxCell id="CSLr4fiPys_Uv9W4NYpY-214" value="" style="group" vertex="1" connectable="0" parent="1">
          <mxGeometry x="220" y="200" width="60" height="80" as="geometry" />
        </mxCell>
        <mxCell id="CSLr4fiPys_Uv9W4NYpY-215" value="" style="rounded=0;whiteSpace=wrap;html=1;fillColor=#dae8fc;strokeColor=#6c8ebf;container=0;" vertex="1" parent="CSLr4fiPys_Uv9W4NYpY-214">
          <mxGeometry width="60" height="80" as="geometry" />
        </mxCell>
        <mxCell id="CSLr4fiPys_Uv9W4NYpY-216" value="" style="endArrow=none;html=1;rounded=0;exitX=0;exitY=0;exitDx=0;exitDy=0;entryX=1;entryY=0.5;entryDx=0;entryDy=0;" edge="1" parent="CSLr4fiPys_Uv9W4NYpY-214">
          <mxGeometry width="50" height="50" relative="1" as="geometry">
            <mxPoint as="sourcePoint" />
            <mxPoint x="60" y="40" as="targetPoint" />
          </mxGeometry>
        </mxCell>
        <mxCell id="CSLr4fiPys_Uv9W4NYpY-217" value="" style="endArrow=none;html=1;rounded=0;exitX=0;exitY=1;exitDx=0;exitDy=0;entryX=1;entryY=0.5;entryDx=0;entryDy=0;" edge="1" parent="CSLr4fiPys_Uv9W4NYpY-214" source="CSLr4fiPys_Uv9W4NYpY-215" target="CSLr4fiPys_Uv9W4NYpY-215">
          <mxGeometry width="50" height="50" relative="1" as="geometry">
            <mxPoint x="80" y="-60" as="sourcePoint" />
            <mxPoint x="130" y="-110" as="targetPoint" />
          </mxGeometry>
        </mxCell>
        <mxCell id="CSLr4fiPys_Uv9W4NYpY-218" value="1" style="text;html=1;align=center;verticalAlign=middle;whiteSpace=wrap;rounded=0;container=0;" vertex="1" parent="CSLr4fiPys_Uv9W4NYpY-214">
          <mxGeometry y="10" width="20" height="20" as="geometry" />
        </mxCell>
        <mxCell id="CSLr4fiPys_Uv9W4NYpY-219" value="0" style="text;html=1;align=center;verticalAlign=middle;whiteSpace=wrap;rounded=0;container=0;" vertex="1" parent="CSLr4fiPys_Uv9W4NYpY-214">
          <mxGeometry y="50" width="20" height="20" as="geometry" />
        </mxCell>
        <mxCell id="CSLr4fiPys_Uv9W4NYpY-220" value="" style="shape=flexArrow;endArrow=classic;html=1;rounded=0;entryX=0;entryY=0.5;entryDx=0;entryDy=0;" edge="1" parent="1" target="CSLr4fiPys_Uv9W4NYpY-219">
          <mxGeometry width="50" height="50" relative="1" as="geometry">
            <mxPoint x="570" y="550" as="sourcePoint" />
            <mxPoint x="280" y="550" as="targetPoint" />
            <Array as="points">
              <mxPoint x="180" y="550" />
              <mxPoint x="180" y="260" />
            </Array>
          </mxGeometry>
        </mxCell>
        <mxCell id="CSLr4fiPys_Uv9W4NYpY-221" value="" style="endArrow=classic;html=1;rounded=0;" edge="1" parent="1">
          <mxGeometry width="50" height="50" relative="1" as="geometry">
            <mxPoint x="100" y="60" as="sourcePoint" />
            <mxPoint x="250" y="200" as="targetPoint" />
            <Array as="points">
              <mxPoint x="100" y="130" />
              <mxPoint x="250" y="130" />
            </Array>
          </mxGeometry>
        </mxCell>
        <mxCell id="CSLr4fiPys_Uv9W4NYpY-222" value="" style="endArrow=classic;html=1;rounded=0;exitX=1;exitY=0.5;exitDx=0;exitDy=0;" edge="1" parent="1" source="CSLr4fiPys_Uv9W4NYpY-149">
          <mxGeometry width="50" height="50" relative="1" as="geometry">
            <mxPoint x="730" y="390" as="sourcePoint" />
            <mxPoint x="1140" y="150" as="targetPoint" />
          </mxGeometry>
        </mxCell>
        <mxCell id="CSLr4fiPys_Uv9W4NYpY-223" value="&amp;amp;" style="rounded=0;whiteSpace=wrap;html=1;fontStyle=1;fontSize=16;fillColor=#f8cecc;strokeColor=#b85450;container=0;" vertex="1" parent="1">
          <mxGeometry x="1000" y="620" width="40" height="40" as="geometry" />
        </mxCell>
        <mxCell id="CSLr4fiPys_Uv9W4NYpY-224" value="" style="endArrow=classic;html=1;rounded=0;entryX=0;entryY=0.75;entryDx=0;entryDy=0;startArrow=oval;startFill=1;" edge="1" parent="1" target="CSLr4fiPys_Uv9W4NYpY-223">
          <mxGeometry width="50" height="50" relative="1" as="geometry">
            <mxPoint x="980" y="150" as="sourcePoint" />
            <mxPoint x="180" y="650" as="targetPoint" />
            <Array as="points">
              <mxPoint x="980" y="650" />
            </Array>
          </mxGeometry>
        </mxCell>
        <mxCell id="CSLr4fiPys_Uv9W4NYpY-226" value="Bit counter" style="text;html=1;align=center;verticalAlign=middle;whiteSpace=wrap;rounded=0;fontStyle=1" vertex="1" parent="1">
          <mxGeometry x="170" y="90" width="130" height="20" as="geometry" />
        </mxCell>
        <mxCell id="CSLr4fiPys_Uv9W4NYpY-229" value="" style="endArrow=classic;html=1;rounded=0;entryX=0.5;entryY=0;entryDx=0;entryDy=0;startArrow=oval;startFill=1;" edge="1" parent="1" target="CSLr4fiPys_Uv9W4NYpY-137">
          <mxGeometry width="50" height="50" relative="1" as="geometry">
            <mxPoint x="980" y="650" as="sourcePoint" />
            <mxPoint x="580" y="590" as="targetPoint" />
            <Array as="points">
              <mxPoint x="260" y="650" />
            </Array>
          </mxGeometry>
        </mxCell>
        <mxCell id="CSLr4fiPys_Uv9W4NYpY-230" value="ready_out" style="text;html=1;align=center;verticalAlign=middle;whiteSpace=wrap;rounded=0;fontStyle=1" vertex="1" parent="1">
          <mxGeometry x="190" y="650" width="70" height="20" as="geometry" />
        </mxCell>
        <mxCell id="CSLr4fiPys_Uv9W4NYpY-231" value="" style="endArrow=classic;html=1;rounded=0;entryX=0;entryY=0.5;entryDx=0;entryDy=0;exitX=0;exitY=1;exitDx=0;exitDy=0;" edge="1" parent="1" source="CSLr4fiPys_Uv9W4NYpY-154" target="CSLr4fiPys_Uv9W4NYpY-137">
          <mxGeometry width="50" height="50" relative="1" as="geometry">
            <mxPoint x="20" y="740" as="sourcePoint" />
            <mxPoint x="120" y="870" as="targetPoint" />
          </mxGeometry>
        </mxCell>
        <mxCell id="CSLr4fiPys_Uv9W4NYpY-234" value="" style="group" vertex="1" connectable="0" parent="1">
          <mxGeometry x="230" y="960" width="60" height="80" as="geometry" />
        </mxCell>
        <mxCell id="CSLr4fiPys_Uv9W4NYpY-235" value="" style="rounded=0;whiteSpace=wrap;html=1;fillColor=#dae8fc;strokeColor=#6c8ebf;container=0;" vertex="1" parent="CSLr4fiPys_Uv9W4NYpY-234">
          <mxGeometry width="60" height="80" as="geometry" />
        </mxCell>
        <mxCell id="CSLr4fiPys_Uv9W4NYpY-236" value="" style="endArrow=none;html=1;rounded=0;exitX=0;exitY=0;exitDx=0;exitDy=0;entryX=1;entryY=0.5;entryDx=0;entryDy=0;" edge="1" parent="CSLr4fiPys_Uv9W4NYpY-234">
          <mxGeometry width="50" height="50" relative="1" as="geometry">
            <mxPoint as="sourcePoint" />
            <mxPoint x="60" y="40" as="targetPoint" />
          </mxGeometry>
        </mxCell>
        <mxCell id="CSLr4fiPys_Uv9W4NYpY-237" value="" style="endArrow=none;html=1;rounded=0;exitX=0;exitY=1;exitDx=0;exitDy=0;entryX=1;entryY=0.5;entryDx=0;entryDy=0;" edge="1" parent="CSLr4fiPys_Uv9W4NYpY-234" source="CSLr4fiPys_Uv9W4NYpY-235" target="CSLr4fiPys_Uv9W4NYpY-235">
          <mxGeometry width="50" height="50" relative="1" as="geometry">
            <mxPoint x="80" y="-60" as="sourcePoint" />
            <mxPoint x="130" y="-110" as="targetPoint" />
          </mxGeometry>
        </mxCell>
        <mxCell id="CSLr4fiPys_Uv9W4NYpY-238" value="1" style="text;html=1;align=center;verticalAlign=middle;whiteSpace=wrap;rounded=0;container=0;" vertex="1" parent="CSLr4fiPys_Uv9W4NYpY-234">
          <mxGeometry y="10" width="20" height="20" as="geometry" />
        </mxCell>
        <mxCell id="CSLr4fiPys_Uv9W4NYpY-239" value="0" style="text;html=1;align=center;verticalAlign=middle;whiteSpace=wrap;rounded=0;container=0;" vertex="1" parent="CSLr4fiPys_Uv9W4NYpY-234">
          <mxGeometry y="50" width="20" height="20" as="geometry" />
        </mxCell>
        <mxCell id="CSLr4fiPys_Uv9W4NYpY-242" value="" style="endArrow=none;html=1;rounded=0;endFill=0;" edge="1" parent="1">
          <mxGeometry width="50" height="50" relative="1" as="geometry">
            <mxPoint x="120" y="630" as="sourcePoint" />
            <mxPoint x="480" y="780" as="targetPoint" />
            <Array as="points">
              <mxPoint x="120" y="700" />
              <mxPoint x="480" y="700" />
            </Array>
          </mxGeometry>
        </mxCell>
        <mxCell id="CSLr4fiPys_Uv9W4NYpY-243" value="Shadow register with load and shift" style="text;html=1;align=center;verticalAlign=middle;whiteSpace=wrap;rounded=0;fontStyle=1" vertex="1" parent="1">
          <mxGeometry x="220" y="1320" width="220" height="20" as="geometry" />
        </mxCell>
        <mxCell id="CSLr4fiPys_Uv9W4NYpY-244" value="reset_in" style="text;html=1;align=center;verticalAlign=middle;whiteSpace=wrap;rounded=0;fontStyle=1" vertex="1" parent="1">
          <mxGeometry x="150" y="740" width="50" height="20" as="geometry" />
        </mxCell>
        <mxCell id="CSLr4fiPys_Uv9W4NYpY-247" value="serial_out" style="text;html=1;align=center;verticalAlign=middle;whiteSpace=wrap;rounded=0;fontStyle=1" vertex="1" parent="1">
          <mxGeometry x="1080" y="710" width="60" height="30" as="geometry" />
        </mxCell>
        <mxCell id="CSLr4fiPys_Uv9W4NYpY-248" value="serial_in" style="text;html=1;align=center;verticalAlign=middle;whiteSpace=wrap;rounded=0;fontStyle=1" vertex="1" parent="1">
          <mxGeometry x="20" y="1140" width="60" height="20" as="geometry" />
        </mxCell>
        <mxCell id="CSLr4fiPys_Uv9W4NYpY-249" value="" style="endArrow=classic;html=1;rounded=0;exitX=0;exitY=1;exitDx=0;exitDy=0;" edge="1" parent="1">
          <mxGeometry width="50" height="50" relative="1" as="geometry">
            <mxPoint x="20" y="1160" as="sourcePoint" />
            <mxPoint x="720" y="1160" as="targetPoint" />
          </mxGeometry>
        </mxCell>
        <mxCell id="CSLr4fiPys_Uv9W4NYpY-250" value="" style="shape=flexArrow;endArrow=classic;html=1;rounded=0;" edge="1" parent="1">
          <mxGeometry width="50" height="50" relative="1" as="geometry">
            <mxPoint x="720" y="840" as="sourcePoint" />
            <mxPoint x="1140" y="840" as="targetPoint" />
          </mxGeometry>
        </mxCell>
        <mxCell id="CSLr4fiPys_Uv9W4NYpY-251" value="data_out" style="text;html=1;align=center;verticalAlign=middle;whiteSpace=wrap;rounded=0;fontStyle=1" vertex="1" parent="1">
          <mxGeometry x="1080" y="797" width="60" height="30" as="geometry" />
        </mxCell>
        <mxCell id="CSLr4fiPys_Uv9W4NYpY-252" value="data_in" style="text;html=1;align=center;verticalAlign=middle;whiteSpace=wrap;rounded=0;fontStyle=1" vertex="1" parent="1">
          <mxGeometry x="20" y="950" width="50" height="30" as="geometry" />
        </mxCell>
        <mxCell id="CSLr4fiPys_Uv9W4NYpY-253" value="" style="endArrow=none;html=1;rounded=0;strokeWidth=3;" edge="1" parent="1">
          <mxGeometry width="50" height="50" relative="1" as="geometry">
            <mxPoint x="720" y="1180" as="sourcePoint" />
            <mxPoint x="720" y="1060" as="targetPoint" />
          </mxGeometry>
        </mxCell>
        <mxCell id="CSLr4fiPys_Uv9W4NYpY-254" value="" style="shape=flexArrow;endArrow=classic;html=1;rounded=0;" edge="1" parent="1">
          <mxGeometry width="50" height="50" relative="1" as="geometry">
            <mxPoint x="590" y="839.9999999999999" as="sourcePoint" />
            <mxPoint x="720" y="840.33" as="targetPoint" />
          </mxGeometry>
        </mxCell>
        <mxCell id="CSLr4fiPys_Uv9W4NYpY-258" value="" style="group" vertex="1" connectable="0" parent="1">
          <mxGeometry x="640" y="810" width="20" height="50" as="geometry" />
        </mxCell>
        <mxCell id="CSLr4fiPys_Uv9W4NYpY-256" value="" style="endArrow=none;html=1;rounded=0;" edge="1" parent="CSLr4fiPys_Uv9W4NYpY-258">
          <mxGeometry width="50" height="50" relative="1" as="geometry">
            <mxPoint y="50" as="sourcePoint" />
            <mxPoint x="20" y="10" as="targetPoint" />
          </mxGeometry>
        </mxCell>
        <mxCell id="CSLr4fiPys_Uv9W4NYpY-257" value="7" style="text;html=1;align=center;verticalAlign=middle;whiteSpace=wrap;rounded=0;fontStyle=1" vertex="1" parent="CSLr4fiPys_Uv9W4NYpY-258">
          <mxGeometry width="20" height="20" as="geometry" />
        </mxCell>
        <mxCell id="CSLr4fiPys_Uv9W4NYpY-259" value="" style="group" vertex="1" connectable="0" parent="1">
          <mxGeometry x="640" y="1050" width="20" height="50" as="geometry" />
        </mxCell>
        <mxCell id="CSLr4fiPys_Uv9W4NYpY-260" value="" style="endArrow=none;html=1;rounded=0;" edge="1" parent="CSLr4fiPys_Uv9W4NYpY-259">
          <mxGeometry width="50" height="50" relative="1" as="geometry">
            <mxPoint y="50" as="sourcePoint" />
            <mxPoint x="20" y="10" as="targetPoint" />
          </mxGeometry>
        </mxCell>
        <mxCell id="CSLr4fiPys_Uv9W4NYpY-261" value="7" style="text;html=1;align=center;verticalAlign=middle;whiteSpace=wrap;rounded=0;fontStyle=1" vertex="1" parent="CSLr4fiPys_Uv9W4NYpY-259">
          <mxGeometry width="20" height="20" as="geometry" />
        </mxCell>
        <mxCell id="CSLr4fiPys_Uv9W4NYpY-265" value="" style="group" vertex="1" connectable="0" parent="1">
          <mxGeometry x="510" y="1170" width="20" height="50" as="geometry" />
        </mxCell>
        <mxCell id="CSLr4fiPys_Uv9W4NYpY-263" value="" style="endArrow=none;html=1;rounded=0;" edge="1" parent="CSLr4fiPys_Uv9W4NYpY-265">
          <mxGeometry width="50" height="50" relative="1" as="geometry">
            <mxPoint y="50" as="sourcePoint" />
            <mxPoint x="20" y="10" as="targetPoint" />
          </mxGeometry>
        </mxCell>
        <mxCell id="CSLr4fiPys_Uv9W4NYpY-264" value="8" style="text;html=1;align=center;verticalAlign=middle;whiteSpace=wrap;rounded=0;fontStyle=1" vertex="1" parent="CSLr4fiPys_Uv9W4NYpY-265">
          <mxGeometry width="20" height="20" as="geometry" />
        </mxCell>
        <mxCell id="CSLr4fiPys_Uv9W4NYpY-269" value="" style="group" vertex="1" connectable="0" parent="1">
          <mxGeometry x="280" y="1190" width="20" height="50" as="geometry" />
        </mxCell>
        <mxCell id="CSLr4fiPys_Uv9W4NYpY-270" value="" style="endArrow=none;html=1;rounded=0;" edge="1" parent="CSLr4fiPys_Uv9W4NYpY-269">
          <mxGeometry width="50" height="50" relative="1" as="geometry">
            <mxPoint y="50" as="sourcePoint" />
            <mxPoint x="20" y="10" as="targetPoint" />
          </mxGeometry>
        </mxCell>
        <mxCell id="CSLr4fiPys_Uv9W4NYpY-271" value="8" style="text;html=1;align=center;verticalAlign=middle;whiteSpace=wrap;rounded=0;fontStyle=1" vertex="1" parent="CSLr4fiPys_Uv9W4NYpY-269">
          <mxGeometry width="20" height="20" as="geometry" />
        </mxCell>
        <mxCell id="CSLr4fiPys_Uv9W4NYpY-272" value="" style="group" vertex="1" connectable="0" parent="1">
          <mxGeometry x="530" y="1210" width="20" height="50" as="geometry" />
        </mxCell>
        <mxCell id="CSLr4fiPys_Uv9W4NYpY-273" value="" style="endArrow=none;html=1;rounded=0;" edge="1" parent="CSLr4fiPys_Uv9W4NYpY-272">
          <mxGeometry width="50" height="50" relative="1" as="geometry">
            <mxPoint y="50" as="sourcePoint" />
            <mxPoint x="20" y="10" as="targetPoint" />
          </mxGeometry>
        </mxCell>
        <mxCell id="CSLr4fiPys_Uv9W4NYpY-274" value="8" style="text;html=1;align=center;verticalAlign=middle;whiteSpace=wrap;rounded=0;fontStyle=1" vertex="1" parent="CSLr4fiPys_Uv9W4NYpY-272">
          <mxGeometry width="20" height="20" as="geometry" />
        </mxCell>
        <mxCell id="CSLr4fiPys_Uv9W4NYpY-275" value="" style="group" vertex="1" connectable="0" parent="1">
          <mxGeometry x="160" y="950" width="20" height="50" as="geometry" />
        </mxCell>
        <mxCell id="CSLr4fiPys_Uv9W4NYpY-276" value="" style="endArrow=none;html=1;rounded=0;" edge="1" parent="CSLr4fiPys_Uv9W4NYpY-275">
          <mxGeometry width="50" height="50" relative="1" as="geometry">
            <mxPoint y="50" as="sourcePoint" />
            <mxPoint x="20" y="10" as="targetPoint" />
          </mxGeometry>
        </mxCell>
        <mxCell id="CSLr4fiPys_Uv9W4NYpY-277" value="8" style="text;html=1;align=center;verticalAlign=middle;whiteSpace=wrap;rounded=0;fontStyle=1" vertex="1" parent="CSLr4fiPys_Uv9W4NYpY-275">
          <mxGeometry width="20" height="20" as="geometry" />
        </mxCell>
        <mxCell id="CSLr4fiPys_Uv9W4NYpY-278" value="" style="endArrow=none;html=1;rounded=0;strokeWidth=3;" edge="1" parent="1">
          <mxGeometry width="50" height="50" relative="1" as="geometry">
            <mxPoint x="720" y="860" as="sourcePoint" />
            <mxPoint x="720" y="780" as="targetPoint" />
          </mxGeometry>
        </mxCell>
        <mxCell id="CSLr4fiPys_Uv9W4NYpY-279" value="" style="endArrow=classic;html=1;rounded=0;" edge="1" parent="1">
          <mxGeometry width="50" height="50" relative="1" as="geometry">
            <mxPoint x="680" y="740" as="sourcePoint" />
            <mxPoint x="720" y="800" as="targetPoint" />
            <Array as="points">
              <mxPoint x="680" y="800" />
            </Array>
          </mxGeometry>
        </mxCell>
        <mxCell id="CSLr4fiPys_Uv9W4NYpY-280" value="" style="group" vertex="1" connectable="0" parent="1">
          <mxGeometry x="750" y="810" width="20" height="50" as="geometry" />
        </mxCell>
        <mxCell id="CSLr4fiPys_Uv9W4NYpY-281" value="" style="endArrow=none;html=1;rounded=0;" edge="1" parent="CSLr4fiPys_Uv9W4NYpY-280">
          <mxGeometry width="50" height="50" relative="1" as="geometry">
            <mxPoint y="50" as="sourcePoint" />
            <mxPoint x="20" y="10" as="targetPoint" />
          </mxGeometry>
        </mxCell>
        <mxCell id="CSLr4fiPys_Uv9W4NYpY-282" value="8" style="text;html=1;align=center;verticalAlign=middle;whiteSpace=wrap;rounded=0;fontStyle=1" vertex="1" parent="CSLr4fiPys_Uv9W4NYpY-280">
          <mxGeometry width="20" height="20" as="geometry" />
        </mxCell>
        <mxCell id="CSLr4fiPys_Uv9W4NYpY-283" value="" style="endArrow=classic;html=1;rounded=0;entryX=0.5;entryY=0;entryDx=0;entryDy=0;startArrow=oval;startFill=1;" edge="1" parent="1" target="CSLr4fiPys_Uv9W4NYpY-60">
          <mxGeometry width="50" height="50" relative="1" as="geometry">
            <mxPoint x="840" y="650" as="sourcePoint" />
            <mxPoint x="1010" y="1170" as="targetPoint" />
            <Array as="points">
              <mxPoint x="840" y="1280" />
              <mxPoint x="390" y="1280" />
            </Array>
          </mxGeometry>
        </mxCell>
        <mxCell id="CSLr4fiPys_Uv9W4NYpY-284" value="ready_out" style="text;html=1;align=center;verticalAlign=middle;whiteSpace=wrap;rounded=0;fontStyle=1" vertex="1" parent="1">
          <mxGeometry x="190" y="650" width="70" height="20" as="geometry" />
        </mxCell>
        <mxCell id="CSLr4fiPys_Uv9W4NYpY-285" value="ready_out" style="text;html=1;align=center;verticalAlign=middle;whiteSpace=wrap;rounded=0;fontStyle=1" vertex="1" parent="1">
          <mxGeometry x="390" y="1280" width="60" height="20" as="geometry" />
        </mxCell>
      </root>
    </mxGraphModel>
  </diagram>
</mxfile>
